<svg width="9" height="16" viewBox="0 0 9 16" fill="none" xmlns="http://www.w3.org/2000/svg">
<path d="M8.39233e-05 7.88152C-0.000771523 7.73347 0.027606 7.5867 0.0835905 7.44963C0.139576 7.31256 0.222066 7.18789 0.326333 7.08277L7.07633 0.332773C7.18092 0.227329 7.30534 0.143635 7.44244 0.0865206C7.57953 0.0294058 7.72657 0 7.87508 0C8.0236 0 8.17064 0.0294058 8.30773 0.0865206C8.44483 0.143635 8.56925 0.227329 8.67384 0.332773C8.88337 0.543556 9.00098 0.82869 9.00098 1.1259C9.00098 1.42311 8.88337 1.70824 8.67384 1.91902L2.71133 7.88152L8.67384 13.8328C8.88337 14.0436 9.00098 14.3287 9.00098 14.6259C9.00098 14.9231 8.88337 15.2082 8.67384 15.419C8.56925 15.5245 8.44483 15.6082 8.30773 15.6653C8.17064 15.7224 8.0236 15.7518 7.87508 15.7518C7.72657 15.7518 7.57953 15.7224 7.44244 15.6653C7.30534 15.6082 7.18092 15.5245 7.07633 15.419L0.326333 8.66902C0.118496 8.45948 0.00132656 8.17666 8.39233e-05 7.88152Z" fill="#064DAE"/>
</svg>
