<svg width="21" height="21" viewBox="0 0 21 21" fill="none" xmlns="http://www.w3.org/2000/svg">
<path d="M7.65948 17.8041V15.1754C7.65947 14.5068 8.19138 13.9636 8.85042 13.9591H11.2645C11.9266 13.9591 12.4635 14.5037 12.4635 15.1754V15.1754V17.8122C12.4633 18.3799 12.9099 18.8438 13.4693 18.8571H15.0787C16.683 18.8571 17.9836 17.5377 17.9836 15.9101V15.9101V8.43242C17.975 7.79213 17.6787 7.19086 17.1789 6.79974L11.6749 2.30168C10.7106 1.51848 9.3399 1.51848 8.37565 2.30168L2.89575 6.8079C2.39408 7.19744 2.09724 7.79971 2.09106 8.44059V15.9101C2.09106 17.5377 3.39164 18.8571 4.99598 18.8571H6.60535C7.17864 18.8571 7.64339 18.3857 7.64339 17.8041V17.8041" stroke="white" stroke-width="1.5" stroke-linecap="round" stroke-linejoin="round"/>
</svg>
