<svg width="408" height="76" viewBox="0 0 408 76" fill="none" xmlns="http://www.w3.org/2000/svg">
<g filter="url(#filter0_d_154_12670)">
<rect x="10" y="6" width="388" height="56" rx="10" fill="white" shape-rendering="crispEdges"/>
<rect x="20" y="14" width="40" height="40" rx="20" fill="#FAFAFC"/>
<path d="M35.8619 36.7858C34.7301 37.4597 31.7628 38.8357 33.5701 40.5575C34.4529 41.3986 35.4362 42.0001 36.6724 42.0001H43.7266C44.9628 42.0001 45.9461 41.3986 46.8289 40.5575C48.6362 38.8357 45.6689 37.4597 44.5371 36.7858C41.8832 35.2055 38.5158 35.2055 35.8619 36.7858Z" stroke="#064DAE" stroke-width="1.5" stroke-linecap="round" stroke-linejoin="round"/>
<path d="M43.8005 29.5998C43.8005 31.5878 42.1888 33.1995 40.2007 33.1995C38.2126 33.1995 36.601 31.5878 36.601 29.5998C36.601 27.6117 38.2126 26 40.2007 26C42.1888 26 43.8005 27.6117 43.8005 29.5998Z" stroke="#064DAE" stroke-width="1.5"/>
<path d="M71.136 39V27.8H78.256V29.176H72.832V32.664H77.776V34.008H72.832V37.624H78.256V39H71.136ZM83.8286 39.192C83.0606 39.192 82.3833 39.0107 81.7966 38.648C81.21 38.2853 80.7513 37.7893 80.4206 37.16C80.09 36.5307 79.9246 35.816 79.9246 35.016C79.9246 34.216 80.09 33.5067 80.4206 32.888C80.7513 32.2587 81.21 31.768 81.7966 31.416C82.394 31.0533 83.0766 30.872 83.8446 30.872C84.474 30.872 85.0233 30.9947 85.4926 31.24C85.9726 31.4853 86.346 31.832 86.6126 32.28V27.48H88.3086V39H86.7886L86.6126 37.768C86.3566 38.1413 86.0046 38.472 85.5566 38.76C85.1086 39.048 84.5326 39.192 83.8286 39.192ZM84.1326 37.72C84.858 37.72 85.45 37.4693 85.9086 36.968C86.378 36.4667 86.6126 35.8213 86.6126 35.032C86.6126 34.232 86.378 33.5867 85.9086 33.096C85.45 32.5947 84.858 32.344 84.1326 32.344C83.4073 32.344 82.81 32.5947 82.3406 33.096C81.8713 33.5867 81.6366 34.232 81.6366 35.032C81.6366 35.5547 81.7433 36.0187 81.9566 36.424C82.17 36.8293 82.4633 37.1493 82.8366 37.384C83.2206 37.608 83.6526 37.72 84.1326 37.72ZM91.407 29.56C91.087 29.56 90.8203 29.464 90.607 29.272C90.4043 29.0693 90.303 28.8187 90.303 28.52C90.303 28.2213 90.4043 27.976 90.607 27.784C90.8203 27.5813 91.087 27.48 91.407 27.48C91.727 27.48 91.9883 27.5813 92.191 27.784C92.4043 27.976 92.511 28.2213 92.511 28.52C92.511 28.8187 92.4043 29.0693 92.191 29.272C91.9883 29.464 91.727 29.56 91.407 29.56ZM90.559 39V31.064H92.255V39H90.559ZM97.8219 39C97.0432 39 96.4245 38.8133 95.9659 38.44C95.5072 38.056 95.2779 37.3787 95.2779 36.408V32.488H93.9179V31.064H95.2779L95.4859 29.048H96.9739V31.064H99.2139V32.488H96.9739V36.408C96.9739 36.8453 97.0645 37.1493 97.2459 37.32C97.4379 37.48 97.7632 37.56 98.2219 37.56H99.1339V39H97.8219ZM105.058 39V27.8H108.978C109.853 27.8 110.578 27.9493 111.154 28.248C111.73 28.536 112.157 28.936 112.434 29.448C112.722 29.9493 112.866 30.52 112.866 31.16C112.866 31.768 112.727 32.328 112.45 32.84C112.183 33.3413 111.762 33.7413 111.186 34.04C110.61 34.3387 109.874 34.488 108.978 34.488H106.754V39H105.058ZM106.754 33.096H108.898C109.698 33.096 110.269 32.9253 110.61 32.584C110.962 32.232 111.138 31.7573 111.138 31.16C111.138 30.5413 110.962 30.0613 110.61 29.72C110.269 29.368 109.698 29.192 108.898 29.192H106.754V33.096ZM114.478 39V31.064H115.998L116.142 32.568C116.42 32.0453 116.804 31.6347 117.294 31.336C117.796 31.0267 118.398 30.872 119.102 30.872V32.648H118.638C118.169 32.648 117.748 32.728 117.374 32.888C117.012 33.0373 116.718 33.2987 116.494 33.672C116.281 34.0347 116.174 34.5413 116.174 35.192V39H114.478ZM124.05 39.192C123.292 39.192 122.61 39.0213 122.002 38.68C121.404 38.328 120.93 37.8427 120.578 37.224C120.226 36.5947 120.05 35.864 120.05 35.032C120.05 34.2 120.226 33.4747 120.578 32.856C120.94 32.2267 121.426 31.7413 122.034 31.4C122.642 31.048 123.319 30.872 124.066 30.872C124.823 30.872 125.5 31.048 126.098 31.4C126.706 31.7413 127.186 32.2267 127.538 32.856C127.9 33.4747 128.082 34.2 128.082 35.032C128.082 35.864 127.9 36.5947 127.538 37.224C127.186 37.8427 126.706 38.328 126.098 38.68C125.49 39.0213 124.807 39.192 124.05 39.192ZM124.05 37.736C124.455 37.736 124.828 37.6347 125.17 37.432C125.522 37.2293 125.804 36.9307 126.018 36.536C126.231 36.1307 126.338 35.6293 126.338 35.032C126.338 34.4347 126.231 33.9387 126.018 33.544C125.815 33.1387 125.538 32.8347 125.186 32.632C124.844 32.4293 124.471 32.328 124.066 32.328C123.66 32.328 123.282 32.4293 122.93 32.632C122.588 32.8347 122.311 33.1387 122.098 33.544C121.884 33.9387 121.778 34.4347 121.778 35.032C121.778 35.6293 121.884 36.1307 122.098 36.536C122.311 36.9307 122.588 37.2293 122.93 37.432C123.271 37.6347 123.644 37.736 124.05 37.736ZM130.316 39V32.488H129.18V31.064H130.316V29.912C130.316 29.048 130.529 28.4293 130.956 28.056C131.393 27.672 132.006 27.48 132.796 27.48H133.628V28.92H133.052C132.678 28.92 132.412 29 132.252 29.16C132.092 29.3093 132.012 29.5653 132.012 29.928V31.064H133.836V32.488H132.012V39H130.316ZM136.407 29.56C136.087 29.56 135.82 29.464 135.607 29.272C135.404 29.0693 135.303 28.8187 135.303 28.52C135.303 28.2213 135.404 27.976 135.607 27.784C135.82 27.5813 136.087 27.48 136.407 27.48C136.727 27.48 136.988 27.5813 137.191 27.784C137.404 27.976 137.511 28.2213 137.511 28.52C137.511 28.8187 137.404 29.0693 137.191 29.272C136.988 29.464 136.727 29.56 136.407 29.56ZM135.559 39V31.064H137.255V39H135.559ZM139.494 39V27.48H141.19V39H139.494ZM147.05 39.192C146.271 39.192 145.578 39.0213 144.97 38.68C144.372 38.328 143.903 37.8427 143.562 37.224C143.22 36.6053 143.05 35.8853 143.05 35.064C143.05 34.232 143.215 33.5013 143.546 32.872C143.887 32.2427 144.356 31.752 144.954 31.4C145.562 31.048 146.266 30.872 147.066 30.872C147.844 30.872 148.522 31.048 149.098 31.4C149.674 31.7413 150.122 32.2 150.442 32.776C150.762 33.352 150.922 33.9867 150.922 34.68C150.922 34.7867 150.916 34.904 150.906 35.032C150.906 35.1493 150.9 35.2827 150.89 35.432H144.714C144.767 36.2 145.018 36.7867 145.466 37.192C145.924 37.5867 146.452 37.784 147.05 37.784C147.53 37.784 147.93 37.6773 148.25 37.464C148.58 37.24 148.826 36.9413 148.986 36.568H150.682C150.468 37.3147 150.042 37.9387 149.402 38.44C148.772 38.9413 147.988 39.192 147.05 39.192ZM147.05 32.264C146.484 32.264 145.983 32.4347 145.546 32.776C145.108 33.1067 144.842 33.608 144.746 34.28H149.226C149.194 33.6613 148.975 33.1707 148.57 32.808C148.164 32.4453 147.658 32.264 147.05 32.264Z" fill="#242222"/>
<path d="M374.59 38.59L379.17 34L374.59 29.41L376 28L382 34L376 40L374.59 38.59Z" fill="#064DAE"/>
</g>
<defs>
<filter id="filter0_d_154_12670" x="0" y="0" width="408" height="76" filterUnits="userSpaceOnUse" color-interpolation-filters="sRGB">
<feFlood flood-opacity="0" result="BackgroundImageFix"/>
<feColorMatrix in="SourceAlpha" type="matrix" values="0 0 0 0 0 0 0 0 0 0 0 0 0 0 0 0 0 0 127 0" result="hardAlpha"/>
<feOffset dy="4"/>
<feGaussianBlur stdDeviation="5"/>
<feComposite in2="hardAlpha" operator="out"/>
<feColorMatrix type="matrix" values="0 0 0 0 0 0 0 0 0 0 0 0 0 0 0 0 0 0 0.12 0"/>
<feBlend mode="normal" in2="BackgroundImageFix" result="effect1_dropShadow_154_12670"/>
<feBlend mode="normal" in="SourceGraphic" in2="effect1_dropShadow_154_12670" result="shape"/>
</filter>
</defs>
</svg>
